<svg width="20" height="20" fill="none" xmlns="http://www.w3.org/2000/svg"><path d="M10 5.455A4.547 4.547 0 0 0 5.455 10 4.547 4.547 0 0 0 10 14.546 4.547 4.547 0 0 0 14.546 10 4.547 4.547 0 0 0 10 5.455ZM.91 10.909h1.817c.5 0 .91-.409.91-.909s-.41-.91-.91-.91H.91C.41 9.09 0 9.5 0 10s.41.91.91.91Zm16.363 0h1.818c.5 0 .909-.409.909-.909s-.41-.91-.91-.91h-1.817c-.5 0-.91.41-.91.91s.41.91.91.91ZM9.09.91v1.818c0 .5.409.91.909.91s.91-.41.91-.91V.91C10.91.41 10.5 0 10 0s-.91.41-.91.91Zm0 16.364v1.818c0 .5.409.909.909.909s.91-.41.91-.91v-1.817c0-.5-.41-.91-.91-.91s-.91.41-.91.91ZM4.536 3.255a.905.905 0 1 0-1.282 1.282l.964.963a.905.905 0 0 0 1.282 0c.345-.355.355-.936 0-1.282l-.964-.963ZM15.782 14.5a.905.905 0 1 0-1.282 1.282l.964.963a.905.905 0 1 0 1.282-1.282l-.964-.963Zm.963-9.964a.905.905 0 1 0-1.282-1.282l-.963.964a.905.905 0 0 0 0 1.282c.354.345.936.355 1.282 0l.963-.964ZM5.5 15.782A.905.905 0 1 0 4.218 14.5l-.963.964a.905.905 0 0 0 0 1.281c.354.346.936.355 1.281 0l.964-.963Z" fill="#000"/></svg>