<svg width="9" height="9" fill="none" xmlns="http://www.w3.org/2000/svg"><path fill-rule="evenodd" clip-rule="evenodd" d="M2.365 1.219a.74.74 0 0 0-1.055 0 .76.76 0 0 0 0 1.067l1.94 1.962a1 1 0 0 1 0 1.406L1.216 7.711a.76.76 0 0 0 0 1.067.74.74 0 0 0 1.055 0l2.017-2.04a1 1 0 0 1 1.423 0l2.017 2.04a.74.74 0 0 0 1.054 0 .76.76 0 0 0 0-1.067L6.75 5.654a1 1 0 0 1 0-1.406l1.94-1.962a.76.76 0 0 0 0-1.067.74.74 0 0 0-1.055 0L5.711 3.165a1 1 0 0 1-1.423 0L2.365 1.219Z" fill="#000" fill-opacity=".3"/></svg>