<svg width="982" height="677" fill="none" xmlns="http://www.w3.org/2000/svg"><path d="M239.402 579.645c-4.772 45.636 12.223 80.197 53.425 92.698 25.835 7.837 54.389 5.781 85.423-6.155 6.037-2.321 10.261-3.466 10.621-2.879.87 1.419 2.526.103 2.754-2.189.183-1.847.359-1.939 2.813-1.443 1.845.373 2.601.148 2.563-.762-.03-.711.836-1.832 1.923-2.492 1.504-.914 2.313-.653 3.379 1.087l1.402 2.288 20.387-11.776 9.812 14.694 61.821-37.547-4.73-7.719 15.506-9.417c13.405-8.141 15.49-9.643 15.381-11.074-.07-.911-.942-1.93-1.938-2.265-1.508-.507-4.367.893-17.048 8.351l-15.236 8.961-11.773-19.216 14.975-9.387c12.463-7.814 15.021-9.704 15.259-11.271.157-1.036-.354-2.274-1.136-2.752-1.228-.751-3.524.407-16.928 8.548l-15.506 9.418-4.729-7.719-61.821 37.546 8.632 15.411-19.845 12.659 1.402 2.287c.93 1.52.881 2.604-.146 3.228-.851.517-1.76.593-2.02.168-.682-1.112-3.416.769-3.288 2.262.074.873-.687 1.092-2.484.714-2.224-.467-2.636-.294-2.895 1.215-.266 1.552-1.345 2.189-9.192 5.434-18.481 7.64-37.887 10.879-57.009 9.515-19.706-1.406-36.068-7.282-48.919-17.568-8.669-6.938-19.539-20.316-23.625-44.313-2.742-43.368-2.19-28.387 3.686-67.821 9.435-63.327 4.399-82.901-5.041-117.359-15.695-39.439-45.764-64.452-137.996-48.05-21.376 3.802-45.902 12.657-76.627 23.855C-45.22 426.455-117.32 488.808-194 591.831l.313 4.037 3.184 1.783c76.681-103.023 144.227-162.642 220.08-190.287 25.413-9.261 66.718-23.71 76.059-24.568 52.676-8.412 62.465-6.811 82.023-1.752 8.602 2.225 48.676 7.192 61.041 86.358 1.907 28.951-5.645 77.312-9.298 112.243ZM464.822 529.869c-7.765-2.266-11.157-2.065-10.95.648.167 2.18 16.096 6.818 18.47 5.377 3.018-1.833.828-3.588-7.52-6.025ZM484.848 497.537c-7.936-7.374-9.211-8.128-11.434-6.778-2.149 1.305.02 4.263 9.443 12.88 9.053 8.278 9.411 8.502 11.529 7.216 2.07-1.257-.659-5.069-9.538-13.318ZM515.857 477.691c-1.537.934-1.698 2.207-.726 5.712 2.765 9.954 3.594 11.532 5.745 10.947 2.86-.779 2.935-1.511.859-8.301-2.605-8.514-3.509-9.797-5.878-8.358ZM559.112 455.304c-2.743-.266-3.925 2.708-6.357 15.987-2.416 13.2-2.438 14.458-.25 14.67 2.879.278 2.561 1.135 5.834-15.754 2.601-13.42 2.668-14.72.773-14.903ZM528.353 622.265c-2.632-.255-3.656 2.477-6.103 16.277-1.913 10.795-2.185 14.923-.987 15.039 2.955.285 3.927-2.146 6.441-16.113 2.475-13.754 2.53-15.022.649-15.203ZM559.238 614.451c-2.102 1.276-2.048 3.826.218 10.546 2.625 7.779 2.781 7.957 5.289 6.042 1.842-1.408 1.894-2.512.337-7.428-2.515-7.942-4.005-10.277-5.844-9.16ZM601.78 609.266c-3.38-3.19-7.76-7.322-9.735-9.18-2.837-2.67-4.008-3.126-5.58-2.171-2.549 1.548-2.162 2.119 8.269 12.236 9.275 8.997 10.01 9.495 12.089 8.232 2.294-1.393 1.373-3.06-5.043-9.117ZM618.052 574.229c-7.628-2.292-11.106-1.99-10.883.943.136 1.782 16.154 6.182 18.133 4.981 2.827-1.718.547-3.58-7.25-5.924ZM680.761 465.6c-.589-.057-11.162 6.625-23.267 13.976-13.983 8.493-22.179 13.084-22.479 12.594-.261-.424-1.17-.349-2.021.168s-1.334 1.287-1.074 1.712c.682 1.113-2.252 2.673-3.514 1.869-.851-.542-1.219-.318-1.84 1.118-1.463 3.387-2.434 2.784-6.682-4.15l-4.257-6.947-15.473 9.398-4.257-6.948-14.442 8.772c-12.15 7.379-14.555 8.588-15.151 7.613-.545-.889-2.028-.357-6.384 2.288l-5.673 3.446 31.686 51.718 5.673-3.446c4.356-2.645 5.51-3.714 4.965-4.604-.597-.974 1.583-2.549 13.733-9.929l14.442-8.771-4.257-6.947 15.474-9.398-4.256-6.947c-4.248-6.935-4.342-8.07-.648-7.815 1.566.107 1.935-.116 1.839-1.117-.14-1.486 2.596-3.369 3.278-2.256.26.425 1.169.349 2.02-.168s1.339-1.28 1.084-1.696c-.285-.466 8.14-6.093 21.846-14.592l22.309-13.835c22.784-15.193 37.803-17.047 55.174-25.73 93.017-46.494 156.8-96.121 191.523-150.179 16.692-25.986 29.925-46.741 37.197-65.405 31.376-80.53 8.568-111.237-32.046-131.135-36.111-13.543-56.672-20.942-126.966-21.746-43.772-.5-27.552 2.193-74.342-6.633-25.513-7.194-38.475-18.931-44.754-27.743-9.308-13.065-13.302-28.64-11.942-46.566 1.321-17.395 7.691-34.37 18.716-49.867L690.167-57c-17.54 26.156-23.966 51.53-19.227 75.91 7.56 38.883 42.675 59.234 93.034 61.637 38.547 1.838 92.279 2.141 123.503 8.102 84.332 22.731 83.86 59.494 85.019 67.555 2.636 18.329 2.942 27.366-13.937 73.499-2.304 8.273-24.085 43.296-37.89 64.789-35.098 54.642-95.047 101.325-188.245 147.22-16.224 7.989-32.107 11.009-51.663 23.888Z" fill="#111"/></svg>